<svg xmlns="http://www.w3.org/2000/svg" viewBox="0 0 512 512">
  <rect width="512" height="512" rx="112" fill="#1d140d"/>
  <rect x="24" y="300" width="464" height="188" rx="0" fill="#3d2918"/>
  <path d="M24 300h464v24H24z" fill="#8d6a3c"/>
  <path d="M256 40v170" stroke="#d9cdb8" stroke-width="14" stroke-linecap="round"/>
  <circle cx="256" cy="222" r="34" fill="#5d6570"/>
  <circle cx="256" cy="222" r="24" fill="#b8c0c8"/>
  <circle cx="256" cy="222" r="9" fill="#ffc531"/>
  <path d="M232 244l-40 46 18 40M280 244l40 46-18 40" fill="none" stroke="#5d6570" stroke-width="26" stroke-linecap="round" stroke-linejoin="round"/>
  <path d="M232 244l-40 46 18 40M280 244l40 46-18 40" fill="none" stroke="#b8c0c8" stroke-width="14" stroke-linecap="round" stroke-linejoin="round"/>
  <path d="M190 360c-30 0-52 20-50 46 2 30 30 48 66 48 22 0 44-4 62-12 34-14 42-46 18-66-20-16-54-16-96-16z" fill="#f2b52c" stroke="#6e4205" stroke-width="10"/>
  <circle cx="200" cy="384" r="16" fill="#ffe999"/>
  <path d="M330 372h70l22 26-57 64-57-64z" fill="#9fe6fb" stroke="#1d6a8f" stroke-width="9" stroke-linejoin="round"/>
</svg>
